<svg xmlns="http://www.w3.org/2000/svg" width="430" height="430" style="width:100%;height:100%;transform:translate3d(0,0,0);content-visibility:visible" viewBox="0 0 430 430"><defs><clipPath id="a"><path d="M0 0h430v430H0z"/></clipPath><clipPath id="c"><path d="M0 0h430v430H0z"/></clipPath><clipPath id="b"><path d="M0 0h430v430H0z"/></clipPath></defs><g fill="white" clip-path="url(#a)"><g clip-path="url(#b)" style="display:block"><g stroke-width="19.425" style="display:block"><path stroke="#121330" stroke-linecap="round" stroke-linejoin="round" d="M118.337 278.361s-8.476 1.088-12.28 5.805c-5.957 7.385-5.831 19.632 15.055 19.632H296.4" class="primary"/><path stroke="#07A889" d="M134.062 303.798c15.316 0 27.75 12.435 27.75 27.75 0 15.316-12.434 27.75-27.75 27.75-15.315 0-27.75-12.434-27.75-27.75 0-15.315 12.435-27.75 27.75-27.75zm164.188 0c15.315 0 27.75 12.435 27.75 27.75 0 15.316-12.435 27.75-27.75 27.75s-27.75-12.434-27.75-27.75c0-15.315 12.435-27.75 27.75-27.75z" class="secondary"/></g><path stroke="#121330" stroke-linecap="round" stroke-linejoin="round" stroke-width="5.25" d="M-47-38h6.392c3.378 0 7.837 2.865 9.059 10.116C-29.029-12.923-24 17-24 17m-6.939-45.027L45.5-28h1.25l-.487 1.681-6.828 23.551c-1.27 4.381-2.643 8.16-5.702 10.711-3.325 2.773-7.335 3.483-11.948 4.009l-45.41 5.173s-2.291.294-3.319 1.569" class="primary" style="display:block" transform="matrix(3.7 0 0 3.7 205.75 214.998)"/></g><g clip-path="url(#c)" style="display:none"><g style="display:none"><path class="primary"/><path class="secondary"/><path class="secondary"/></g><g style="display:none"><path class="primary"/><path class="primary"/></g></g></g></svg>